<?xml version="1.0" standalone="no"?>
<!DOCTYPE svg PUBLIC "-//W3C//DTD SVG 20010904//EN"
 "http://www.w3.org/TR/2001/REC-SVG-20010904/DTD/svg10.dtd">
<svg version="1.0" xmlns="http://www.w3.org/2000/svg"
 width="96.000000pt" height="96.000000pt" viewBox="0 0 96.000000 96.000000"
 preserveAspectRatio="xMidYMid meet">
<metadata>
Created by potrace 1.14, written by Peter Selinger 2001-2017
</metadata>
<g transform="translate(0.000000,96.000000) scale(0.100000,-0.100000)"
fill="#000000" stroke="none">
<path d="M615 921 c-54 -15 -62 -21 -80 -59 l-20 -41 -102 -1 c-101 0 -125 -8
-104 -33 7 -10 -1 -29 -29 -73 l-40 -59 0 -258 c0 -256 5 -297 34 -297 8 0 13
-8 12 -18 -1 -16 14 -17 194 -17 180 0 195 1 194 18 -1 9 4 17 12 17 29 0 34
41 34 297 l0 258 -39 60 c-28 42 -37 63 -29 72 17 21 -1 33 -49 33 -37 0 -44
3 -39 16 3 9 6 19 6 24 0 4 29 16 65 25 48 13 65 22 63 33 -4 22 -16 22 -83 3z"/>
</g>
</svg>
